<?xml version="1.0" encoding="UTF-8"?>
<svg id="Layer_1" data-name="Layer 1" xmlns="http://www.w3.org/2000/svg" viewBox="0 0 16 16">
  <path d="M9.12,10.74c.12-.02.2-.04.28-.04.2,0,.4.1.52.3.04.08.06.18.06.28,0,.2-.1.4-.24.54-.55.59-2.04,1.43-2.83,1.64-.08.04-.16.04-.24.04-.24,0-.44-.1-.56-.28-.04-.08-.06-.18-.06-.28,0-.18.08-.36.24-.53.6-.63,2-1.39,2.83-1.67M10.52,1.85h-.63v8.45c-.24-.12-.5-.2-.79-.24-.73,0-1.29.1-1.94.43-1.03.56-1.68,1.49-1.68,2.26,0,.83.67,1.28,1.44,1.38.73,0,1.29-.1,1.94-.46,1.01-.53,1.66-1.43,1.66-2.22V1.85"/>
</svg>